<?xml version="1.0" encoding="UTF-8" standalone="no"?>
<!-- Created with Inkscape (http://www.inkscape.org/) -->

<svg
   width="64"
   height="64"
   viewBox="0 0 12.7 12.7"
   version="1.1"
   id="svg1"
   xmlns="http://www.w3.org/2000/svg"
   xmlns:svg="http://www.w3.org/2000/svg">
  <defs
     id="defs1">
    <mask
       maskUnits="userSpaceOnUse"
       id="mask13">
      <circle
         style="fill:#dfeae9;fill-opacity:1;stroke-width:0.0954392;stroke-linecap:round;stroke-linejoin:round"
         id="circle14"
         cx="6.3408399"
         cy="6.2899885"
         r="6.265121" />
    </mask>
  </defs>
  <g
     id="layer1">
    <g
       id="g11"
       mask="url(#mask13)">
      <circle
         style="fill:#dfeae9;fill-opacity:1;stroke-width:0.0954392;stroke-linecap:round;stroke-linejoin:round"
         id="circle13"
         cx="6.3408399"
         cy="6.2899885"
         r="6.265121" />
      <path
         id="path12"
         style="fill:#dfeae9;fill-opacity:1;stroke-width:0.548646;stroke-linecap:round;stroke-linejoin:round"
         d="M 8.9920842,0.38000483 C 8.0809492,0.85069128 7.8678029,2.0321093 7.3139958,2.7931943 6.2621768,2.8446344 5.2258827,3.0300991 4.2192837,3.3396981 3.4527614,2.7540213 2.98398,1.6369011 1.9668311,1.4687262 0.92865356,1.6977155 1.1485579,3.0317449 1.1787317,3.8368653 c 0.1964013,1.1691046 0.486001,2.3195731 0.48143,3.5156464 0.063731,1.5857232 0.5579212,3.1222033 0.4252133,4.7188153 -0.1052361,1.217038 0.3083762,2.478095 1.0678926,3.405376 0.7622995,0.475077 1.7423661,0.106693 2.6004382,0.210821 2.721114,-0.02252 5.4422282,-0.04504 8.1633422,-0.06756 0.862333,-0.436617 0.673543,-1.490222 0.810162,-2.301855 C 14.87833,11.749475 14.7058,9.966699 13.422357,8.8790379 12.847379,8.2102992 11.877791,7.7975738 11.804005,6.8078851 11.436861,5.2756036 10.601354,3.8809307 10.470859,2.2938399 10.273296,1.5644082 10.01758,0.21090367 8.9920842,0.38000483 Z" />
      <path
         style="fill:#1e2e2d;fill-opacity:1;stroke-width:0.548646;stroke-linecap:round;stroke-linejoin:round"
         d="M 4.0880483,3.957094 C 3.571822,3.6989808 2.4017085,2.0986788 2.0231431,2.0470562 1.6445767,1.9954333 1.6789919,3.4752825 1.8166528,4.2324149 c 0.1376599,0.757132 0.3097349,1.1873208 0.3269425,1.6347169 0.017211,0.4473964 0.1720762,3.0457356 0.3957741,3.8200762 0.223698,0.77434 0.068833,2.66717 0.1548675,3.441509 0.086043,0.774339 0.8603775,1.996076 0.8603775,1.996076 l 10.3589436,-0.08604 c 0,0 0.77434,-3.630793 -0.292527,-5.0418116 C 12.554163,8.5859249 11.642163,8.3106041 11.452879,7.6395093 11.263595,6.968415 10.687861,5.1042658 10.351596,4.3356601 10.110691,3.7850184 10.059068,3.4752826 9.9558224,2.7181505 9.8525778,1.9610184 9.491219,0.92856557 9.1814827,0.92856557 8.8717472,0.92856557 8.0354762,2.7395627 7.7704638,3.2515846 7.3505833,3.4710782 6.7281437,3.3656688 5.8776335,3.5269053 4.9570478,3.7014266 4.4321996,3.9226788 4.0880483,3.957094 Z"
         id="path1" />
      <g
         id="g13"
         transform="matrix(1.0972939,0,0,1.0972939,-0.50636668,0.36071646)">
        <path
           style="fill:#fadf5c;fill-opacity:1;stroke-width:0.578517;stroke-linecap:round;stroke-linejoin:round"
           d="M 4.53863,4.937576 C 5.1950785,4.8427891 5.4503641,5.1542313 5.474677,5.5604604 5.4989899,5.9666891 5.2193915,6.3052135 4.6845075,6.3864595 4.3463886,6.4378178 3.8821811,6.156263 3.8700246,5.8041976 3.8578683,5.4521325 3.9915894,5.0188217 4.53863,4.937576 Z"
           id="path2" />
        <path
           style="fill:#1e2e2d;fill-opacity:1;stroke-width:0.499999;stroke-linecap:round;stroke-linejoin:round"
           d="M 4.2027234,6.4609029 C 4.2811324,5.4807902 4.5477231,4.8221545 4.5477231,4.8221545 h 0.2117042 c 0,0 0.2509089,1.0349992 0.3606816,1.3407943 0.1097725,0.3057951 -0.054887,0.3763631 -0.054887,0.3763631 0,0 -0.2195451,-0.4469312 -0.2587498,-0.5802267 0,0 -0.1176128,0.070569 -0.2979536,0.023523 0,0 -0.078409,0.2822729 -0.1097724,0.509659 -0.031364,0.2273862 -0.1960225,-0.031364 -0.1960227,-0.031364 z"
           id="path4" />
        <path
           style="fill:#e7eeee;fill-opacity:1;stroke-width:0.499999;stroke-linecap:round;stroke-linejoin:round"
           d="m 4.6300525,5.3616683 c 0.1097726,0 0.1521841,0.044946 0.1561045,0.1939231 C 4.790077,5.7045685 4.7632953,5.7951085 4.633973,5.7889976 4.5007686,5.7827032 4.4921643,5.7069059 4.4843233,5.5814516 4.4764837,5.455997 4.5283892,5.3616683 4.6300525,5.3616683 Z"
           id="path6" />
      </g>
      <g
         id="g12"
         transform="matrix(1.0972939,0,0,1.0972939,-0.50636668,0.36071646)">
        <path
           style="fill:#fadf5c;fill-opacity:1;stroke-width:0.578517;stroke-linecap:round;stroke-linejoin:round"
           d="M 7.9272631,4.287261 C 7.2723101,4.3918831 7.121137,4.7651306 7.2186718,5.1602257 7.3162064,5.5553204 7.6837915,5.7954355 8.2186496,5.7140188 8.556752,5.6625523 8.916288,5.2557408 8.823246,4.9159746 8.730204,4.5762089 8.4737282,4.2022306 7.9272631,4.287261 Z"
           id="path3" />
        <path
           style="fill:#1e2e2d;fill-opacity:1;stroke-width:0.499999;stroke-linecap:round;stroke-linejoin:round"
           d="m 7.4174931,4.2576096 c 0.2901133,0.7292038 0.6586358,1.7485212 0.6586358,1.7485212 0,0 0.5174993,-0.3606816 0.392045,-0.8468175 C 8.3427193,4.6731774 8.1937422,4.5085185 7.9271518,4.3360186 7.6605611,4.1635187 7.4174931,4.2576096 7.4174931,4.2576096 Z"
           id="path5" />
        <path
           style="fill:#e7eeee;fill-opacity:1;stroke-width:0.499999;stroke-linecap:round;stroke-linejoin:round"
           d="M 7.92692,4.7340617 C 8.0297104,4.6955367 8.0851981,4.7227397 8.1411529,4.860865 8.1971069,4.9989904 8.2038039,5.0931707 8.0805629,5.1328342 7.9536223,5.1736885 7.9189641,5.1057321 7.8675934,4.9910093 7.816224,4.8762858 7.8317232,4.7697406 7.92692,4.7340617 Z"
           id="path7" />
      </g>
      <g
         id="g14"
         transform="matrix(-1.0328102,0.30880783,0.30880783,1.0328102,11.586125,-2.1189674)">
        <path
           style="fill:#fadf5c;fill-opacity:1;stroke-width:0.499999;stroke-linecap:round;stroke-linejoin:round"
           d="M 7.2741935,7.2076613 C 6.8749999,7.0745968 6.8881955,7.8496646 7.0080644,8.4163307 c 0.043329,0.2048341 0.083165,0.3881046 0.083165,0.3881046 0,0 -0.1862138,0.039907 -0.3160282,0.1451001 -0.1691372,0.1370573 -0.1165946,0.559884 -0.1165946,0.559884 0,0 0.043471,0.049246 -0.2945713,-0.1308637 C 6.118791,9.2478888 5.4848721,9.2724697 6.3561944,10.293932 6.7476793,10.752874 7.0948363,10.989514 7.4780569,11.10416 8.0297841,11.269219 8.592044,11.233067 8.7157258,10.65625 8.903935,9.7784951 8.1169353,9.0927419 7.8729839,8.4717741 7.6290322,7.8508063 7.5181451,7.4516127 7.2741935,7.2076613 Z"
           id="path17" />
        <path
           style="fill:none;fill-opacity:1;stroke:#a88c04;stroke-width:0.1;stroke-linecap:round;stroke-linejoin:round;stroke-dasharray:none;stroke-opacity:1"
           d="m 6.6243555,9.5583283 c 0.024949,0.3629584 0.167479,0.5712077 0.2561888,0.7209057 0.08871,0.149697 0.153027,0.0587 0.153027,0.0587 0,0 0.085776,0.188902 0.2022054,0.227713 0.1164315,0.03881 0.1253053,8.4e-5 0.1253053,8.4e-5 0,0 0.1237968,0.0739 0.2402283,0.08499 0.1164312,0.01109 0.1552419,-0.160787 0.1663306,-0.438005"
           id="path8" />
        <path
           style="fill:none;fill-opacity:1;stroke:#a88c04;stroke-width:0.1;stroke-linecap:round;stroke-linejoin:round;stroke-dasharray:none;stroke-opacity:1"
           d="M 7.0233521,10.3125 C 6.9290983,10.035282 6.8462256,9.5453504 6.913695,9.3196664 6.9719924,9.1246626 7.1975239,9.0109695 7.1975239,9.0109695"
           id="path9" />
        <path
           style="fill:none;fill-opacity:1;stroke:#a88c04;stroke-width:0.1;stroke-linecap:round;stroke-linejoin:round;stroke-dasharray:none;stroke-opacity:1"
           d="M 7.3573589,10.561996 C 7.2409274,10.212701 7.1270245,9.3647404 7.3684475,9.2147177 7.5148977,9.1237122 7.6870509,9.1273539 7.6870509,9.1273539"
           id="path10" />
      </g>
    </g>
  </g>
</svg>
